<svg id="Capa_1" data-name="Capa 1" xmlns="http://www.w3.org/2000/svg" viewBox="0 0 243.06 113.77"><defs><style>.cls-1{fill:#ef781a;}</style></defs><path class="cls-1" d="M29.39,72.28V19.4H13.44v-12H57.56v12h-16V72.28Z"/><path class="cls-1" d="M60.2,72.28V30.52H71.69V33.9c3.28-3.29,8.2-4.38,11.49-4.38h2.73l-2.73,11.4H81.44c-5.38,0-9.75,4.19-9.75,9.2V72.28Z"/><path class="cls-1" d="M93.56,18.49a6.59,6.59,0,0,1,2.1-4.92,7,7,0,0,1,5-2.1,7,7,0,1,1-7.11,7Zm1.19,53.79V30.52H106.6V72.28Z"/><path class="cls-1" d="M118.72,18.49a6.59,6.59,0,0,1,2.1-4.92,7,7,0,0,1,5-2.1,7,7,0,1,1-7.11,7Zm1.19,53.79V30.52h11.85V72.28Z"/><path class="cls-1" d="M157.92,72.28,141,30.52h11.76l10.21,25,10.12-25h11.86L168,72.28Z"/><path class="cls-1" d="M198.3,67.81a18.53,18.53,0,0,1-5.74-13.58V30.52h11.49V54.23a7.86,7.86,0,0,0,8,7.75,7.94,7.94,0,0,0,8.11-7.75V30.52h11.49V54.23a18.92,18.92,0,0,1-5.84,13.58,20.05,20.05,0,0,1-27.53,0Z"/><path class="cls-1" d="M118,106.4c-29.57,0-52.49-24-53.47-25l2.76-2.61c.24.24,23.47,24.52,52.06,23.78,15.8-.42,30.4-8.39,43.39-23.71l2.89,2.46c-13.72,16.18-29.26,24.61-46.21,25Z"/></svg>